<?xml version="1.0" encoding="utf-8"?>
<!-- Generator: Adobe Illustrator 24.1.2, SVG Export Plug-In . SVG Version: 6.00 Build 0)  -->
<svg version="1.1" id="Слой_1" xmlns="http://www.w3.org/2000/svg" xmlns:xlink="http://www.w3.org/1999/xlink" x="0px" y="0px"
	 viewBox="0 0 74.62 159.77" style="enable-background:new 0 0 74.62 159.77;" xml:space="preserve">
<style type="text/css">
	.st0{clip-path:url(#SVGID_2_);fill:#7A75F8;}
	.st1{clip-path:url(#SVGID_2_);fill:#4E4BF4;}
	.st2{clip-path:url(#SVGID_2_);fill:#9D98F9;}
	.st3{clip-path:url(#SVGID_2_);fill:#8988F8;}
	.st4{clip-path:url(#SVGID_2_);fill:#7B7DF8;}
	.st5{clip-path:url(#SVGID_2_);fill:#4440F4;}
	.st6{clip-path:url(#SVGID_2_);fill:#4743F4;}
	.st7{clip-path:url(#SVGID_2_);fill:#514CF5;}
	.st8{clip-path:url(#SVGID_2_);fill:#6560F5;}
	.st9{clip-path:url(#SVGID_2_);fill:#A4A4FA;}
	.st10{clip-path:url(#SVGID_2_);fill:#B1ADFA;}
	.st11{clip-path:url(#SVGID_2_);fill:#A19DFA;}
	.st12{clip-path:url(#SVGID_2_);fill:#3330F2;}
	.st13{clip-path:url(#SVGID_2_);fill:#4746F3;}
	.st14{clip-path:url(#SVGID_2_);fill:#9296F8;}
	.st15{clip-path:url(#SVGID_2_);fill:#7A78F7;}
	.st16{clip-path:url(#SVGID_2_);fill:#99A4F9;}
	.st17{clip-path:url(#SVGID_2_);fill:#5653F5;}
	.st18{clip-path:url(#SVGID_2_);fill:#6764F5;}
	.st19{clip-path:url(#SVGID_2_);fill:#847CF7;}
	.st20{clip-path:url(#SVGID_2_);fill:#3B36F3;}
	.st21{clip-path:url(#SVGID_2_);fill:#9390F8;}
</style>
<g>
	<defs>
		<rect id="SVGID_1_" width="74.62" height="159.77"/>
	</defs>
	<clipPath id="SVGID_2_">
		<use xlink:href="#SVGID_1_"  style="overflow:visible;"/>
	</clipPath>
	<path class="st0" d="M46.77,14.11l0.07,0.86l-0.04,0.03c-1.77,1.07-2.82,2.36-1.55,4.51c0.31,0.52,0.64,1.18,0.5,1.76
		c-1.38,5.62,1.27,11.02,0.8,16.63c-0.31,3.67-0.96,7.32-0.93,11.02c0.74,1.08,0.87,2.37,0.79,3.55c-0.33,4.95,0.03,9.91-0.26,14.86
		c1.03,4.52,0.85,9.11,0.72,13.69c-0.02,0.6-0.27,1.2-0.45,1.79c-0.9,2.91-0.8,3.5-0.26,7.21c0.22,1.54-0.2,3.17,0.86,4.55
		c-1.04,1.29,0.26,2.98-0.68,4.24c-0.86,1.14-0.27,2.24,0.19,3.11c0.47,0.91,0.9,1.51,0.52,2.66c-0.41,1.25,0.41,2.59,0.36,3.99
		c-0.25,7.65,0.38,15.29,0.51,22.93c0,0.08,0.16,0.16,0.25,0.24c0.8-0.23,1.16-0.88,1.47-1.57c1.99-4.44,4.9-8.31,7.71-12.25
		c0.43-0.6,0.95-1.17,1.55-1.58c1.73-1.18,3.75-1.93,5.06-3.72c0.25-0.34,0.86-0.52,1.33-0.57c2.25-0.23,4.5,0.08,6.54,0.92
		c1.62,0.67,2.66,2.18,2.76,4.11c0.18,3.43-0.38,6.69-2.4,9.56c-2.57,3.64-5.43,7.11-7.7,10.93c-1.84,3.09-4.14,5.78-6.2,8.68
		c-1.14,1.6-2.16,3.37-4.2,4.07c-0.33,0.11-0.68,0.38-0.86,0.68c-1.09,1.87-2.67,3.05-4.72,3.69c-0.31,0.1-0.55,0.47-0.82,0.71
		c-0.15-0.05-0.3-0.09-0.44-0.14c-0.98-0.88-1.15-1.77-0.04-2.68c0.17-0.09,0.46-0.1,0.28-0.42c0,0.25-0.16,0.35-0.46,0.28
		c-0.58-0.38-0.63-0.96-0.58-1.57c0.25-1.08-0.01-2.11-0.36-3.13c-0.17-0.58-0.36-1.17-0.31-1.77c0.19-2.89-0.56-4.11-3.4-2.08
		c-0.36,0.26-0.94,0.05-1.4-0.12c-0.63-0.37-1.02-0.9-0.99-1.66c0.32-0.25,0.56-0.78,1.1-0.32c-0.8-0.54-0.98,0.35-1.42,0.62
		c-2.28,1.05-3.96,1.81-4.06-2.15c-0.05-1.87-2.21-3.66-2.96-5.45c0.28,4.44,0.33,9.08,0.64,13.71c0.08,0.68,0.07,1.35-0.19,2
		c-0.31,0.6-0.78,1.07-1.23,1.56c-0.12,0.12-0.24,0.23-0.36,0.34c-0.28,0.2-0.59,0.29-0.92,0.31c-1.27-0.62-3-0.38-3.78-1.96
		c-1.12-1.13-2.38-2.16-3.32-3.42c-0.64-0.86-1.68-0.32-2.22-1.01c-0.52-0.67-0.89-1.48-1.48-2.09c-0.4-0.42-1.02-0.76-1.59-0.85
		c-1.23-0.21-1-1.75-1.96-2.03c-1.06-0.31-1.47-0.92-1.96-1.91c-0.54-1.11-1.53-2.06-2.7-2.87c-1.81-1.27-4.15-2.3-4.49-5
		c-0.07-0.57-0.6-0.23-0.92-0.26c-0.38-0.04-0.7-0.13-0.9-0.52c-0.84-1.69-2.06-3.03-3.63-4.09c-1.24-0.84-1.7-2.02-1.36-3.54
		c0.16-0.71,0.34-1.6,0.06-2.18c-0.65-1.34-0.23-2.45,0.42-3.5c0.78-1.26,1.71-2.32,3.32-2.77c2.52-0.71,5.01-1.69,7.6-0.62
		c2.12,0.88,4.44,1.51,5.97,3.43c1.1,1.37,2.8,1.97,3.95,3.35c2.84,3.41,5.84,6.69,8.8,10c0.32,0.35,0.72,0.63,1.25,1.07
		c-0.65-3.87-0.78-7.51-0.64-11.18c0.15-3.96,0.11-7.92,0.13-11.89c0.03-7.2,0.05-14.4,0.07-21.6c0-0.12,0.04-0.25,0.01-0.37
		c-0.92-4.01-0.48-8.15-1.09-12.19c-0.07-0.49-0.28-1.02-0.18-1.46c0.74-3.1-0.09-6.18-0.11-9.26c-0.02-3.35-0.17-6.69,0.41-10.03
		c0.3-1.69,0.15-3.47,0.16-5.21c0.02-7.82,0.02-15.65,0.05-23.47c0-0.87-0.02-1.77,0.19-2.59c0.5-1.95,0.56-3.92,0.57-5.91
		c0.01-1.12,0.02-2.25,0.68-3.23c0.99-1.15-0.02-2.68,0.72-3.88c1.03-0.39,1.99-0.04,2.79,0.51C38.83,12.53,43.03,12.65,46.77,14.11
		"/>
	<path class="st0" d="M44.64,49.38c-0.72-1.28-1.19-2.48,0.56-3.41c0.65-0.35,0.53-1.01,0.08-1.58c-0.73-0.9-0.79-1.79,0.14-2.6
		c0.51-0.44,0.72-1.03,0.66-1.66c-0.28-2.9,0.82-5.94-0.91-8.69c-0.38-0.59,0.1-1.19,0.29-1.75c0.17-0.51,0.24-1.04-0.36-1.21
		c-1.3-0.37-1.33-1.38-1.17-2.37c0.22-1.33,0.5-2.67,0.93-3.95c0.31-0.92,0.32-1.64-0.31-2.4c-0.39-0.47-0.68-1.04-0.94-1.59
		c-0.83-1.76-0.28-2.76,1.71-3.12c0.48-0.09,0.99-0.04,1.48-0.06c-0.65,2.81-0.24,5.61-0.13,8.44c0.22,5.42,0.18,10.85,0.22,16.28
		c0.01,2.22-0.05,4.43-0.07,6.65C46,47.3,47.13,49.64,44.64,49.38"/>
	<path class="st1" d="M32.69,150.83c0-0.75,0-1.49,0-2.24c1.55-2.01,2.95-1.88,6.02,0.58c0.13,0.31,0.06,0.6-0.11,0.89
		c0.26,0.12,0.28-0.28,0.5-0.23c0.3,0.09,0.52,0.27,0.65,0.56c0.25,0.79-0.21,1.39-0.53,2.02c-0.01,0.14-0.25,0.59,0.18,0.14
		c0.05-0.05-0.01-0.33,0.22-0.48c1.45-0.23,2.59,0.5,3.76,1.15c0.36,0.38,0.6,0.84,0.73,1.35c0.05,0.36-0.03,0.68-0.2,1
		c-0.23,0.25-0.5,0.47-0.79,0.65c-1.39,0.85-3.09,0.8-4.54,1.49c-1.43-1.46-2.78-3.04-5.05-3.19c-0.08-0.24-0.15-0.47-0.19-0.72
		c0,0,0.2-0.27,0.19-0.26c0.21-0.1,0.3-0.27,0.26-0.51c-0.02-0.24-0.03-0.47-0.06-0.7c-0.12-0.24-0.28-0.41-0.52-0.51
		c-0.2-0.17-0.36-0.37-0.48-0.6C32.72,151.09,32.71,150.96,32.69,150.83"/>
	<path class="st2" d="M44.64,49.38c0.79-0.38,1.26-0.99,1.47-1.86c0.1-0.42,0.46-0.78,0.7-1.16c-0.01,6.18-0.01,12.35-0.02,18.53
		c0,0.86,0.06,1.75-0.64,2.43c-0.05-1.36-0.61-2.72-0.59-3.99c0.03-1.49,0.32-2.83-0.73-4.13c-0.4-0.5,0.01-1.17,0.5-1.63
		c1.28-1.22,0.73-2.79,0.73-4.22C46.07,51.9,45.94,50.4,44.64,49.38"/>
	<path class="st3" d="M33.53,154.52c0.12,0,0.27-0.04,0.35,0.02c1.16,0.82,1.8-1.88,2.71-0.55c0.51,0.74,0.94,1.51,1.59,2.16
		c0.31,0.31,0.39,0.85,0.57,1.29c0.72,0.6,1.92,0.44,2.35,1.49c0.1,0.36-0.02,0.61-0.36,0.76c-0.61,0.2-1.14-0.05-1.73-0.17
		c-1.01-0.21-2.08-0.19-3.12-0.27C35.04,157.71,33.78,156.37,33.53,154.52"/>
	<path class="st4" d="M32.82,9.61c-0.05,0.82-0.1,1.63-0.15,2.45c-0.03,0.62-0.27,1.12-0.78,1.49c0.13-2.31,0.41-4.64-1.06-6.71
		c-0.38-0.53-0.12-1.18,0.07-1.76c0.98-3.04,3.32-4.41,6.25-4.96c0.95-0.18,1.95-0.08,2.92-0.1c0.09,0.1,0.18,0.2,0.27,0.31
		c-0.39,1.36-1.65,1.3-2.67,1.58c-3.09,0.85-5.1,2.4-4.31,6.03C33.48,8.52,33.26,9.13,32.82,9.61"/>
	<path class="st0" d="M45.28,157.54c-0.47,0.01-0.94,0.01-1.4,0.02c-0.19-0.2-0.3-0.43-0.32-0.71c0.02-0.52-0.1-1.08,0.29-1.53
		c-0.02-0.25-0.04-0.5-0.06-0.75c0.13-0.09,0.27-0.18,0.4-0.28c0.32-0.05,0.65-0.04,0.97,0.02c0.81,0.15,1.55,0.47,2.27,0.86
		l0.27,0.22c-0.28,0.43-0.7,0.63-1.19,0.67C45.58,156.15,45.38,156.8,45.28,157.54"/>
	<path class="st5" d="M32.82,9.61c-0.14-0.84-0.24-1.7-0.43-2.53c-0.53-2.4-0.02-3.69,2.07-4.86c1.28-0.72,2.57-1.41,4.12-1.44
		c0.58-0.01,1.16-0.31,1.75-0.48c2.11-0.38,3.36,1.37,5.04,2.04c1.2,0.48,1.89,1.53,2.47,2.68c0.48,0.97,0.6,1.87,0.01,2.81
		c-0.2,0.32-0.32,0.68-0.52,0.99c-1.13,1.67-1.31,3.42-0.55,5.28c-2.25,0.38-4.43,0.34-6.48-0.84c-0.32-0.18-0.7-0.38-1.04-0.36
		c-1.62,0.1-2.75-0.81-3.93-1.74C34.56,10.57,33.66,10.13,32.82,9.61"/>
	<path class="st6" d="M38.64,150.11c-0.71-1.82-2.62-1.44-3.89-2.2c-1.25-0.75-1.4,0.45-2.06,0.68c-0.97-1.19,0.2-2.6-0.39-3.83
		c-0.56-1.17-0.32-2.42-0.34-3.64c-0.03-2.57-0.01-5.14-0.01-7.59c1.56,1.09,2.59,1.97,2.84,3.18c0.21,1.05,0.49,1.58,1.56,2.05
		c1.13,0.49,0.99,1.41-0.15,3.59c1.41,0.49,2.58-0.89,3.92-0.47l0,0c0.25,0.5,0.5,1.01,0.75,1.51c2.31,0.01,0.74,2.31,1.81,3.06
		c0.25,0.42,0.36,0.87,0.36,1.35c-0.29,2.26-2.13,2.03-3.67,2.28C39.14,150.1,38.89,150.1,38.64,150.11L38.64,150.11z"/>
	<path class="st7" d="M42.33,146.36c-0.35,0.09-0.8,0.35-1.04,0.23c-0.54-0.27-0.48-0.97-0.13-1.23c1.25-0.9,0.07-1.35-0.28-1.95
		c2.21-0.34,2.21-0.34,3.46-2.46c1.91,0.51,2.33,2.1,2.26,3.68c-0.05,1.12,0.19,2.15,0.26,3.23c-0.23,0.25-0.51,0.38-0.85,0.38
		c-1.21,0.06-1.99-0.86-2.97-1.32C42.77,146.77,42.54,146.59,42.33,146.36"/>
	<path class="st8" d="M47.42,155.18c-1.04,0.1-2.13,0.39-2.89-0.7c-0.17-0.27-0.17-0.55-0.03-0.83c0.23-0.37,0.41-0.76,0.56-1.17
		c0.14-0.18,0.24-0.39,0.29-0.61c-0.27,0.01-0.42,0.28-0.69,0.29c-0.61-0.03-1.38-0.09-1.46-0.73c-0.16-1.34,1.18-1.54,1.95-2.16
		c0.31-0.13,0.63-0.16,0.97-0.1c0.41,0.31,0.64,0.73,0.73,1.23c0.02,0.16,0.05,0.32,0.07,0.48c-0.03,0.6,0.1,1.14,0.68,1.45
		l-0.01-0.01C47,153.24,46.88,154.19,47.42,155.18"/>
	<path class="st3" d="M34.19,152.33c-0.93-0.01-1.52,0.38-1.61,1.36c-0.7-0.23-1.11-0.74-1.4-1.38l-0.02,0.04
		c0.26-0.26,0.27-0.52,0.02-0.79c0.33-0.6,0.9-0.71,1.51-0.73l0,0c0.22,0.3,0.51,0.5,0.8,0.71c0.33,0.08,0.72,0.08,0.97,0.27
		C34.64,151.95,34.47,152.24,34.19,152.33"/>
	<path class="st9" d="M45.35,137.54c0.08-0.37,0.11-0.62,0.19-0.84c0.1-0.27,0.34-0.34,0.6-0.17c0.88,0.57,0.89,1.98,0.01,2.49
		c-0.28,0.16-0.53,0.11-0.6-0.17C45.45,138.38,45.41,137.89,45.35,137.54"/>
	<path class="st10" d="M47.44,135.45c-0.81-0.11-0.93-0.97-1.47-1.37c0.06-0.08,0.12-0.23,0.18-0.23c0.34-0.02,0.72-0.09,1.02,0.02
		c0.46,0.16,0.86,0.49,0.71,1.07C47.84,135.13,47.6,135.27,47.44,135.45"/>
	<path class="st8" d="M46.15,147.87c0.24-0.01,0.48-0.01,0.72-0.01c0.39,1,1.31,1.99,0.06,3.03l-0.06-0.04
		c-0.43-0.42-0.3-1.11-0.76-1.51l0.01,0.02C45.66,148.85,45.67,148.36,46.15,147.87"/>
	<path class="st11" d="M40.13,141.89c0.15-0.18,0.28-0.41,0.47-0.53c0.26-0.18,0.49-0.06,0.53,0.25c0.01,0.05-0.17,0.18-0.28,0.2
		C40.62,141.86,40.37,141.87,40.13,141.89L40.13,141.89z"/>
	<path class="st8" d="M47.61,152.34c0.05-0.11,0.13-0.31,0.16-0.3C48.02,152.08,47.96,152.2,47.61,152.34L47.61,152.34z"/>
	<path class="st12" d="M46.15,147.87c-0.01,0.49-0.02,0.99-0.03,1.48c-0.79,0.64-1.4,1.53-2.46,1.83c0.49,0.54,1.1,0.36,1.66,0.4
		c0.26,0.23,0.29,0.47,0.06,0.74c0.04,0.11,0.06,0.23,0.11,0.34c0.18,0.41,0.68,0.82,0.35,1.27c-0.35,0.49-0.86-0.02-1.3-0.02
		c-0.2,0.19-0.44,0.27-0.72,0.24c-0.26-0.06-0.49-0.19-0.69-0.37c-0.94-0.47-2.2-0.19-2.94-1.21c-0.01-0.02-0.52,0.31-0.79,0.48
		l-0.01,0.01c-0.47-0.29-0.62-0.7-0.47-1.23c0.17-0.58,0.32-1.16,0.48-1.75c0.59-0.83,1.41-1.12,2.41-1.19
		c0.58-0.04,0.55-0.63,0.58-1.09c1.19-0.01,0.37-0.99,0.69-1.43c0.24-0.36,0.69-0.58,0.88-0.2
		C44.44,147.14,45.3,147.48,46.15,147.87"/>
	<path class="st8" d="M41.47,158.88c-0.22,0.02-0.43,0.07-0.63,0.13c-0.75-0.45-1.75-0.57-2.08-1.57c0.2-0.28,0.44-0.53,0.6-0.83
		c0.14-0.27,0.2-0.87,0.54-0.65c1.34,0.88,2.17-0.33,3.21-0.64c0.47,0.45,0.45,0.91,0.05,1.39
		C42.2,157.13,41.73,157.92,41.47,158.88"/>
	<path class="st13" d="M43.16,156.71c-0.02-0.46-0.03-0.93-0.05-1.39c0.24,0,0.49,0,0.74,0c0.16,0.55,0.82,1.12-0.08,1.62
		C43.54,156.92,43.34,156.84,43.16,156.71"/>
	<path class="st3" d="M33.59,153.93c-0.08-0.4,0.06-0.69,0.44-0.85c0.15,0.14,0.3,0.29,0.46,0.43
		C34.19,153.65,33.89,153.79,33.59,153.93"/>
	<path class="st14" d="M39.39,153.07c0.12,0.12,0.24,0.23,0.35,0.35c-0.08-0.02-0.18-0.01-0.22-0.06
		C39.46,153.28,39.43,153.17,39.39,153.07L39.39,153.07z"/>
	<path class="st8" d="M43.13,153.79c0.27,0.03,0.54,0.07,0.81,0.1c0.2,0.2,0.21,0.42,0.04,0.64c0,0-0.2,0.04-0.2,0.04
		C43.56,154.31,43.34,154.05,43.13,153.79"/>
	<path class="st0" d="M33.49,151.55c-0.27-0.24-0.54-0.48-0.8-0.71C32.95,151.07,33.22,151.31,33.49,151.55"/>
	<path class="st15" d="M38.64,150.1c-0.1,0.1-0.2,0.21-0.3,0.31c0.02-0.06,0.01-0.15,0.06-0.19
		C38.46,150.17,38.56,150.15,38.64,150.1L38.64,150.1z"/>
	<path class="st16" d="M43.98,154.54l-0.06-0.32l0.02-0.32c0.2-0.05,0.4-0.05,0.6,0.03c0.02,0.19,0.02,0.38,0,0.56
		C44.35,154.53,44.17,154.55,43.98,154.54"/>
	<path class="st17" d="M36.41,144.85c0.75-1.05,1.45-0.35,2.15,0.08c0.08,0.05,0.17,0.26,0.14,0.29c-0.13,0.15-0.29,0.34-0.45,0.36
		c-0.6,0.05-1.2,0.04-1.81,0.06C36.13,145.39,36.12,145.12,36.41,144.85"/>
	<path class="st18" d="M43.07,146.4c0.25,0.55,0.53,1.1,0.72,1.66c0.07,0.19,0.01,0.6-0.12,0.67c-0.4,0.21-0.53-0.21-0.75-0.44
		c-0.16-0.18-0.37-0.31-0.55-0.47c-0.02-0.49-0.04-0.98-0.06-1.46C42.58,146.37,42.83,146.38,43.07,146.4"/>
	<path class="st17" d="M39.22,147.59c-0.1-0.17-0.3-0.37-0.27-0.51c0.08-0.37,0.39-0.49,0.7-0.28c0.12,0.08,0.19,0.43,0.12,0.55
		C39.69,147.48,39.41,147.51,39.22,147.59"/>
	<path class="st19" d="M36.41,144.85c0.01,0.26,0.02,0.52,0.03,0.79l-0.02,0.01c-0.27,0.17-0.51,0.15-0.73-0.08
		C35.93,145.33,36.17,145.09,36.41,144.85"/>
	<path class="st17" d="M35.69,145.57c0.24,0.04,0.49,0.07,0.73,0.08C36.12,146.16,35.88,146.12,35.69,145.57"/>
	<path class="st20" d="M46.1,149.33c0.6,0.33,0.77,0.88,0.76,1.51C46.19,150.55,46.13,149.95,46.1,149.33"/>
	<path class="st21" d="M45.38,152.32c-0.04-0.24-0.06-0.49-0.06-0.74C45.84,151.79,45.96,152.03,45.38,152.32"/>
</g>
</svg>
